# xmcd
#
# Track frame offsets: 
#        150
#        10361
#        21397
#        33088
#        46550
#        59301
#        70462
#        86966
#        96824
#        107925
#        120144
#
# Disc length: 1762 seconds
#
# Revision: 0
# Processed by: cddbd v1.5.2PL0 Copyright (c) Steve Scherf et al.
# Submitted via: ExactAudioCopy v1.3
#
DISCID=8806e00b
DTITLE=Loretta Lynn - I Wanna Be Free
DYEAR=1971
DGENRE=Country
TTITLE0=I Wanna Be Free
TTITLE1=Help Me Make It Through The Night
TTITLE2=See That Mountain
TTITLE3=When You Leave My World
TTITLE4=Put Your Hand In The Hand
TTITLE5=If I Never Love Again It'll Be Too Soon
TTITLE6=Me And Bobby McGee
TTITLE7=When You're Poor
TTITLE8=Rose Garden
TTITLE9=Drive You Out Of My Mind
TTITLE10=I'm One Man's Woman
EXTD=
EXTT0=
EXTT1=
EXTT2=
EXTT3=
EXTT4=
EXTT5=
EXTT6=
EXTT7=
EXTT8=
EXTT9=
EXTT10=
PLAYORDER=
